<?xml version="1.0" encoding="UTF-8" standalone="no"?>
<!-- Created with Inkscape (http://www.inkscape.org/) -->
<svg xmlns:dc="http://purl.org/dc/elements/1.1/" xmlns:cc="http://creativecommons.org/ns#" xmlns:rdf="http://www.w3.org/1999/02/22-rdf-syntax-ns#" xmlns:svg="http://www.w3.org/2000/svg" xmlns="http://www.w3.org/2000/svg" xmlns:sodipodi="http://sodipodi.sourceforge.net/DTD/sodipodi-0.dtd" xmlns:inkscape="http://www.inkscape.org/namespaces/inkscape" id="svg2" version="1.1" inkscape:version="0.48+devel r12701" width="197.50729" height="447.90109" viewBox="0 0 197.50729 447.90109" sodipodi:docname="b.svg">

  <metadata id="metadata8">
    <rdf:RDF>
      <cc:Work rdf:about="">
        <dc:format>image/svg+xml</dc:format>
        <dc:type rdf:resource="http://purl.org/dc/dcmitype/StillImage"/>
        <dc:title>ASL letter</dc:title>
        <dc:date>11/11/2013</dc:date>
        <dc:creator>
          <cc:Agent>
            <dc:title>edited by Paul Sherman</dc:title>
          </cc:Agent>
        </dc:creator>
        <dc:rights>
          <cc:Agent>
            <dc:title>PD</dc:title>
          </cc:Agent>
        </dc:rights>
        <dc:publisher>
          <cc:Agent>
            <dc:title>WPClipart</dc:title>
          </cc:Agent>
        </dc:publisher>
        <dc:subject>
          <rdf:Bag>
            <rdf:li>sign</rdf:li>
            <rdf:li>language</rdf:li>
            <rdf:li>letter</rdf:li>
            <rdf:li>american</rdf:li>
          </rdf:Bag>
        </dc:subject>
        <cc:license rdf:resource="http://creativecommons.org/publicdomain/zero/1.0/"/>
      </cc:Work>
      <cc:License rdf:about="http://creativecommons.org/publicdomain/zero/1.0/">
        <cc:permits rdf:resource="http://creativecommons.org/ns#Reproduction"/>
        <cc:permits rdf:resource="http://creativecommons.org/ns#Distribution"/>
        <cc:permits rdf:resource="http://creativecommons.org/ns#DerivativeWorks"/>
      </cc:License>
    </rdf:RDF>
  </metadata>
  <defs id="defs6"/>
  <sodipodi:namedview pagecolor="#ffffff" bordercolor="#666666" borderopacity="1" objecttolerance="10" gridtolerance="10" guidetolerance="10" inkscape:pageopacity="0" inkscape:pageshadow="2" inkscape:window-width="784" inkscape:window-height="845" id="namedview4" showgrid="false" fit-margin-top="12" fit-margin-right="12" fit-margin-left="12" fit-margin-bottom="12" inkscape:zoom="0.53636364" inkscape:cx="-227.77484" inkscape:cy="221.9011" inkscape:window-x="0" inkscape:window-y="0" inkscape:window-maximized="0" inkscape:current-layer="svg2"/>
  <path style="fill:#000000" d="m 153.56692,433.33827 c -3.82557,-2.2284 -4.42572,-3.1322 -6.33335,-9.53765 -1.15902,-3.89179 -2.11714,-9.37652 -2.12915,-12.1883 -0.0239,-5.59741 5.44178,-38.51802 7.13395,-42.96876 2.06865,-5.44097 1.79376,-5.64287 -7.69542,-5.65176 -4.8125,-0.005 -12.8,-0.45625 -17.75,-1.00385 -20.31134,-2.24696 -38.01452,-16.44166 -44.69244,-35.83513 -3.41458,-9.91632 -3.18669,-24.39021 0.58185,-36.95625 3.9517,-13.17674 9.10771,-23.80305 14.68297,-30.26093 2.64212,-3.06039 4.9442,-6.02544 5.11574,-6.58899 0.75565,-2.48259 -6.22645,-6.42143 -15.59595,-8.7982 -5.27979,-1.33933 -12.18545,-3.81685 -15.3459,-5.50562 -6.88084,-3.67672 -16.41518,-11.64787 -21.05426,-17.60233 -5.14933,-6.60939 -5.17942,-10.06576 -0.19852,-22.80526 2.31254,-5.91471 5.17254,-11.86749 6.35556,-13.22839 3.26632,-3.75745 8.25102,-4.123 14.74112,-1.08103 5.4188,2.53983 21.0125,7.11884 34.71564,10.19406 14.54677,3.26454 16.56,4.6794 31.79481,22.34485 13.55309,15.7154 13.87695,16.0057 20.83324,18.67351 3.88638,1.49047 8.97864,3.79807 11.31614,5.12801 4.19261,2.3854 4.25,2.39002 4.25,0.34148 0,-1.14211 -2.01848,-7.18006 -4.48552,-13.41765 -4.63924,-11.72976 -6.52232,-18.70293 -8.54437,-31.64032 -0.96197,-6.15488 -0.88178,-10.8675 0.43394,-25.5 3.98532,-44.32198 3.87432,-59.39485 -0.55565,-75.44976 -2.47895,-8.984091 -2.45916,-8.419231 -0.82912,-23.662948 l 1.3006,-12.162949 -2.77488,-5.671648 c -2.96338,-6.056928 -7.17316,-9.492283 -11.64001,-9.498717 -3.76627,-0.0054 -5.90937,2.991549 -6.89543,9.642764 -0.47728,3.219424 -1.60975,9.351371 -2.51659,13.626549 -1.3942,6.572747 -1.45614,8.58019 -0.40109,13 1.15241,4.827715 3.02674,38.304629 2.92412,52.226949 -0.0394,5.34563 -5.22677,44.50727 -6.64275,50.14899 -0.95313,3.79758 -11.38546,6.18585 -11.36161,2.60101 0.006,-0.9625 1.62155,-8.05 3.58921,-15.75 4.36724,-17.09018 5.53772,-33.94696 3.0855,-44.43629 -1.32335,-5.66065 -1.33343,-7.8901 -0.0837,-18.5 1.56078,-13.250204 1.13734,-19.073573 -1.81258,-24.927725 l -1.94708,-3.864016 2.68723,-10.135984 c 3.24014,-12.221502 4.3986,-29.246825 2.46094,-36.167454 -2.4824,-8.866254 -10.62944,-12.168133 -16.93408,-6.863134 -1.70298,1.432968 -4.19252,4.475894 -5.5323,6.762058 -2.26926,3.872202 -2.43507,5.113918 -2.42292,18.144603 0.009,9.216933 -0.55417,16.716583 -1.64996,21.987942 -2.47782,11.919726 -2.7293,13.5 -2.14833,13.5 0.29182,0 2.70011,-0.929967 5.35176,-2.066593 3.24008,-1.388863 5.87933,-1.868079 8.04782,-1.461268 3.56937,0.669618 3.73644,0.840271 4.67761,4.777861 0.64123,2.682704 0.54972,2.75 -3.73961,2.75 -4.36683,0 -10.98602,2.130911 -12.07066,3.8859 -0.31144,0.503911 -0.73866,18.39823 -0.94938,39.76515 -0.27827,28.21612 -0.76533,40.62798 -1.77954,45.34895 l -1.39641,6.5 -3.75631,-0.11705 c -2.06598,-0.0644 -3.98912,-0.34986 -4.27365,-0.63439 -0.28454,-0.28453 0.41333,-11.12949 1.55082,-24.09991 1.13748,-12.97042 1.85118,-25.28495 1.586,-27.36562 C 94.57982,129.20237 93.62232,117.375 92.71722,105 91.08165,82.637519 91.08473,82.43888 93.22105,72.5 98.1941,49.363726 98.26385,43.243627 93.60754,38.587318 90.61955,35.599326 85.05519,33.672227 80.82744,34.161198 77.08943,34.593526 73.94507,40.390564 71.69394,51 c -2.1435,10.102213 -1.5534,32.069124 0.93536,34.81917 2.54036,2.807064 2.07034,10.423941 -1.53448,24.86712 -3.12524,12.52166 -3.20667,13.42338 -3.57256,39.56287 l -0.37443,26.74916 -2.4252,0.60869 c -4.85881,1.21948 -4.96638,0.85082 -6.19701,-21.23736 -1.00348,-18.01124 -1.40402,-21.02437 -2.947,-22.16907 -2.06914,-1.53507 -5.62405,-1.02918 -11.72163,1.66807 -4.19693,1.8565 -4.28582,2.00119 -6.39435,10.40816 -1.17604,4.68901 -2.87059,14.23492 -3.76566,21.21312 -1.5097,11.76992 -1.50646,14.00401 0.0447,30.88689 l 1.67211,18.19926 -2.44224,6.46196 c -9.150311,24.21093 -8.505597,21.51763 -9.233195,38.57175 -0.782777,18.34743 0.592807,28.21866 7.718785,55.39021 4.80295,18.31376 7.69642,24.46551 16.08927,34.20697 4.83704,5.6143 6.49456,8.38331 7.34572,12.27165 0.60456,2.76176 2.74206,11.23304 4.75,18.82507 2.00795,7.59203 3.65081,16.08098 3.65081,18.86435 0,2.90943 -1.3423,9.29496 -3.1577,15.0217 -2.85729,9.01336 -3.35677,9.90401 -5.25,9.36158 -1.15077,-0.32971 -3.3298,-0.86988 -4.8423,-1.20039 -1.5125,-0.33051 -2.74686,-1.10718 -2.74303,-1.72593 0.004,-0.61875 1.21397,-4.5 2.68918,-8.625 3.66302,-10.24256 3.64949,-20.32968 -0.0424,-31.6137 -1.46005,-4.46253 -2.95391,-10.29714 -3.31969,-12.9658 -0.57002,-4.15872 -1.54544,-5.78949 -6.82576,-11.41167 C 30.072572,347.65029 25.971919,339.15219 18.905922,314.70585 13.252596,295.14694 11.95281,285.88403 12.00129,265.5 c 0.04756,-19.99586 0.0047,-19.79287 8.680072,-41.09177 l 4.517862,-11.09177 -1.655154,-16.48127 c -1.867959,-18.60029 -2.465671,-13.36632 6.87808,-60.229 2.32147,-11.64313 3.71303,-21.04804 3.35528,-22.67686 -0.98107,-4.46677 1.33375,-17.99132 4.0249,-23.515893 2.98129,-6.120174 5.39509,-7.405381 15.32261,-8.158384 6.56444,-0.497913 7.42717,-0.806499 8.24129,-2.947788 0.50592,-1.330683 0.62591,-8.939149 0.27047,-17.151087 -0.58999,-13.630908 -0.46602,-15.278745 1.62135,-21.551304 2.38753,-7.174517 6.48469,-12.75187 11.13368,-15.155957 3.7548,-1.941679 13.34336,-1.74591 18.90122,0.385903 l 4.5,1.726053 4.21983,-5.175955 C 106.58374,16.778282 114.66902,12 119.585,12 c 1.59465,0 4.23593,0.7875 5.86952,1.75 3.42322,2.01695 8.9409,9.90038 11.42807,16.327958 2.39953,6.20109 2.68923,6.351142 6.83286,3.539198 2.03318,-1.379756 4.23238,-2.345646 4.8871,-2.146424 0.65472,0.199222 2.41965,0.63131 3.92206,0.960194 3.4368,0.75233 9.27399,5.825718 12.39973,10.777212 4.31121,6.829392 5.34655,13.349662 4.6988,29.59159 -0.54848,13.752826 -0.40989,15.409232 2.15023,25.700272 3.72362,14.96802 4.20692,29.53269 2.0403,61.48608 -2.21179,32.61948 -1.41754,39.99412 7.16359,66.51392 l 4.53004,14 -0.47578,19.5 c -0.7174,29.40289 -5.33976,54.20684 -15.67898,84.13452 -8.54771,24.74206 -14.80065,56.79073 -13.72884,70.36548 0.30399,3.85 1.3992,10.2625 2.43381,14.25 1.19322,4.59877 1.48879,7.21342 0.80828,7.14997 -0.59006,-0.055 -2.97455,-1.20778 -5.29887,-2.5617 z m -0.17132,-79.3932 c 6.93716,-3.71266 21.00215,-59.03506 21.97752,-86.44507 0.37689,-10.59151 0.0319,-12.30272 -3.22861,-16.01629 -3.72722,-4.24506 -5.9453,-5.46993 -17.43202,-9.62631 -4.76718,-1.72497 -10.21354,-4.49365 -12.10301,-6.15264 -1.88948,-1.65898 -7.08602,-8.40254 -11.54787,-14.9857 -9.12196,-13.45885 -8.6416,-13.34832 -13.26491,-3.05229 -1.27604,2.84173 -3.48641,5.93098 -4.91191,6.86501 -1.9826,1.29905 -2.60216,2.55268 -2.63573,5.33323 -0.0241,1.99924 -0.65721,5.35475 -1.40681,7.45669 l -1.36292,3.82169 9.49012,9.88736 c 5.21957,5.43805 10.46514,10.16728 11.65681,10.5094 8.57451,2.46169 10.52144,3.76237 15.04583,10.05163 l 4.60996,6.40822 -3.16552,0 c -1.74104,0 -5.90109,-1.28109 -9.24455,-2.84687 -3.34347,-1.56578 -8.10403,-3.68698 -10.57903,-4.71378 -2.60689,-1.08151 -7.74772,-4.99281 -12.21994,-9.29729 l -7.71994,-7.43038 -1.06958,2.89416 c -0.58827,1.59179 -1.94455,5.14416 -3.01397,7.89416 -11.55995,29.72654 -14.1486,43.82297 -10.37876,56.51739 1.97729,6.65827 7.55712,14.99794 14.16361,21.1691 4.24275,3.96316 6.54948,5.16256 14.9456,7.77103 5.46067,1.6965 11.92301,3.47578 14.36074,3.95395 6.36337,1.2482 16.73119,1.26649 19.03489,0.0336 z m -52.10265,-120.0538 c 4.99408,-2.99824 8.20422,-6.14702 7.01569,-6.88157 -0.62861,-0.3885 0.1173,-4.08625 1.9893,-9.86169 1.64726,-5.08207 2.99501,-9.3846 2.99501,-9.56118 0,-0.17658 -1.9049,-1.58166 -4.2331,-3.12239 -3.16923,-2.0973 -5.9966,-2.97132 -11.25,-3.47769 l -7.0169,-0.67635 -4.81004,5.32242 c -5.35981,5.93076 -9.90998,7.81198 -15.68996,6.48687 -4.01454,-0.92037 -9.58026,-3.63152 -10.4956,-5.11258 -1.19952,-1.94086 -2.5044,-0.98067 -2.5044,1.84285 0,2.90371 3.81267,8.9198 8.11447,12.80399 5.72463,5.16891 24.85843,14.16965 30.38553,14.29369 1.1,0.0247 3.575,-0.90068 5.5,-2.05637 z M 80.25132,196.88924 c 0.0634,-0.92974 -13.89162,-5.12883 -15.27748,-4.59703 -1.33311,0.51157 -4.26832,5.4755 -3.59906,6.08664 0.22999,0.21002 3.11435,1.73494 6.40969,3.38872 l 5.99152,3.00686 3.21685,-3.63722 c 1.76927,-2.00046 3.23559,-3.91205 3.25848,-4.24797 z M 58.63293,124.53622 c 0.34062,-2.48511 1.71377,-8.4599 3.05143,-13.2773 3.55774,-12.812661 3.81899,-15.777797 1.62837,-18.481311 -1.49294,-1.842479 -2.79873,-2.26405 -6.83494,-2.206637 -2.82987,0.04025 -6.07356,0.781321 -7.4942,1.712159 -4.07927,2.672839 -6.11884,10.432099 -6.15739,23.424859 l -0.0332,11.208 5.65853,-0.59089 c 4.99451,-0.52155 5.8101,-0.34819 6.95015,1.47732 1.75698,2.81337 2.5011,2.06121 3.2313,-3.2662 z" id="path4064" inkscape:connector-curvature="0"/>
</svg>