<?xml version="1.0" encoding="UTF-8" standalone="no"?>
<!-- Created with Inkscape (http://www.inkscape.org/) -->
<svg xmlns:dc="http://purl.org/dc/elements/1.1/" xmlns:cc="http://creativecommons.org/ns#" xmlns:rdf="http://www.w3.org/1999/02/22-rdf-syntax-ns#" xmlns:svg="http://www.w3.org/2000/svg" xmlns="http://www.w3.org/2000/svg" xmlns:sodipodi="http://sodipodi.sourceforge.net/DTD/sodipodi-0.dtd" xmlns:inkscape="http://www.inkscape.org/namespaces/inkscape" id="svg2" version="1.1" inkscape:version="0.48+devel r12701" width="415.83105" height="448.23489" viewBox="0 0 415.83105 448.23489" sodipodi:docname="c.svg">

  <metadata id="metadata8">
    <rdf:RDF>
      <cc:Work rdf:about="">
        <dc:format>image/svg+xml</dc:format>
        <dc:type rdf:resource="http://purl.org/dc/dcmitype/StillImage"/>
        <dc:title>ASL letter</dc:title>
        <dc:date>11/11/2013</dc:date>
        <dc:creator>
          <cc:Agent>
            <dc:title>edited by Paul Sherman</dc:title>
          </cc:Agent>
        </dc:creator>
        <dc:rights>
          <cc:Agent>
            <dc:title>PD</dc:title>
          </cc:Agent>
        </dc:rights>
        <dc:publisher>
          <cc:Agent>
            <dc:title>WPClipart</dc:title>
          </cc:Agent>
        </dc:publisher>
        <dc:subject>
          <rdf:Bag>
            <rdf:li>sign</rdf:li>
            <rdf:li>language</rdf:li>
            <rdf:li>letter</rdf:li>
            <rdf:li>american</rdf:li>
          </rdf:Bag>
        </dc:subject>
        <cc:license rdf:resource="http://creativecommons.org/publicdomain/zero/1.0/"/>
      </cc:Work>
      <cc:License rdf:about="http://creativecommons.org/publicdomain/zero/1.0/">
        <cc:permits rdf:resource="http://creativecommons.org/ns#Reproduction"/>
        <cc:permits rdf:resource="http://creativecommons.org/ns#Distribution"/>
        <cc:permits rdf:resource="http://creativecommons.org/ns#DerivativeWorks"/>
      </cc:License>
    </rdf:RDF>
  </metadata>
  <defs id="defs6"/>
  <sodipodi:namedview pagecolor="#ffffff" bordercolor="#666666" borderopacity="1" objecttolerance="10" gridtolerance="10" guidetolerance="10" inkscape:pageopacity="0" inkscape:pageshadow="2" inkscape:window-width="939" inkscape:window-height="940" id="namedview4" showgrid="false" fit-margin-top="12" fit-margin-left="12" fit-margin-right="12" fit-margin-bottom="12" inkscape:zoom="0.48040712" inkscape:cx="205.65225" inkscape:cy="215.60995" inkscape:window-x="0" inkscape:window-y="0" inkscape:window-maximized="0" inkscape:current-layer="svg2"/>
  <path style="fill:#000000" d="m 98.989201,433.25009 -3.7664,-3.68178 2.82066,-1.73612 c 1.55136,-0.95488 6.476899,-3.86744 10.945649,-6.47237 13.52495,-7.88397 19.70194,-14.77519 32.47925,-36.23482 3.6841,-6.1875 10.34782,-17.10679 14.80826,-24.26509 l 8.10989,-13.0151 -2.83719,-2.2974 c -3.81963,-3.09296 -5.07172,-2.96276 -18.84136,1.95918 -6.54837,2.34071 -14.56184,4.65409 -17.80769,5.14083 -5.35655,0.80327 -30.911159,-1.43947 -30.911159,-2.71283 0,-0.55989 5.04047,-10.75652 5.67159,-11.47337 0.20036,-0.22757 1.563509,0.22803 3.029219,1.01245 4.8611,2.60158 15.91295,3.69962 24.049,2.38934 22.93038,-3.69282 47.51325,-27.80472 54.0897,-53.05339 2.61216,-10.0288 2.41731,-16.0067 -1.20395,-36.93521 -1.77396,-10.25237 -3.11897,-22.94301 -3.125,-29.48532 l -0.01,-11.4859 -5.9375,-0.74535 c -9.7336,-1.22188 -20.34753,-3.45325 -20.93316,-4.40082 -0.75149,-1.21592 6.89261,-3.3759 18.12066,-5.12029 5.15625,-0.80108 10.78125,-1.84881 12.5,-2.32828 5.34809,-1.49194 12.13791,-12.12833 27.07331,-42.41087 l 14.41503,-29.22742 -3.00064,-3.00065 c -1.65036,-1.65035 -6.34461,-4.37529 -10.43167,-6.05541 l -7.43103,-3.05476 7.5,-0.0113 c 4.125,-0.006 11.15625,0.85935 15.625,1.92336 l 8.125,1.93456 7.60952,-8.39522 c 7.44673,-8.21563 7.58828,-8.50475 6.61693,-13.51554 -0.54647,-2.81611 -1.01086,-7.93275 -1.03251,-11.37025 l -0.0394,-6.25 3.20287,5.625 c 7.8084,13.71343 11.56613,15.51929 32.39202,15.5667 13.21968,0.0301 17.00759,-0.37494 20.3125,-2.17196 2.23438,-1.21492 4.0625,-2.77679 4.0625,-3.47082 0,-0.79889 -0.97504,-0.74005 -2.65746,0.16035 -2.38803,1.27804 -3.6871,0.41024 -12.8125,-8.55891 -9.81878,-9.650636 -10.39373,-10.007155 -17.36325,-10.766608 -6.83053,-0.744305 -7.28314,-0.62102 -8.63815,2.352894 -1.6427,3.605343 -3.91623,3.893409 -10.15499,1.286686 -5.19157,-2.169175 -11.4043,-1.640337 -23.96712,2.040114 -18.76702,5.49806 -22.7594,8.895104 -37.94994,32.290904 -12.76921,19.66657 -15.93194,23.20665 -34.58159,38.70772 -26.64216,22.14422 -43.42627,41.39398 -50.51883,57.94026 -1.37072,3.19776 -5.02111,14.46668 -8.111979,25.04206 -8.28263,28.33892 -13.10997,37.97348 -28.286745,56.45561 -10.102267,12.30251 -17.457435,24.16756 -17.457435,28.16169 0,1.86947 0.804242,5.67851 1.787206,8.46452 l 1.787207,5.06549 -3.974707,1.38417 c -8.834519,3.0766 -12.827138,7.02743 -18.811888,18.61502 -5.64035,10.92075 -14.144745,22.2974 -19.441153,26.00715 -2.492671,1.74594 -2.537821,1.68495 -1.25377,-1.69341 0.732611,-1.92752 4.307864,-9.97333 7.945008,-17.87958 3.637142,-7.90625 8.169619,-18.03125 10.072171,-22.5 4.645973,-10.91255 11.958863,-24.31416 30.353029,-55.625 22.802157,-38.81419 24.523717,-42.6833 30.312167,-68.125 2.73733,-12.03125 6.94531,-33.34942 9.351059,-47.37372 l 4.3741,-25.49873 5.74052,-7.00127 c 21.8725,-26.67621 33.67108,-39.12145 58.84336,-62.068499 27.54828,-25.11299 27.82472,-25.32218 37.89418,-28.675616 8.73047,-2.907514 11.81113,-4.797482 22.11533,-13.567622 C 246.78069,14.63993 250.36972,12 253.03255,12 c 1.29143,0 6.95686,1.906456 12.58982,4.23657 16.38756,6.778832 23.05568,8.388775 38.99174,9.41413 12.78205,0.82242 16.00912,1.47836 21.82466,4.43612 18.04433,9.177257 50.0567,31.478234 56.95603,39.677616 3.14282,3.735028 3.34672,4.663885 2.81393,12.818689 -0.93443,14.302485 -8.08857,24.398775 -17.29826,24.412205 -1.91801,0.003 -4.63429,1.49795 -6.76867,3.72578 -5.17893,5.40562 -10.51983,6.754 -22.96369,5.79749 -8.89918,-0.68404 -12.31823,-1.63754 -20.9874,-5.85291 -9.52705,-4.63252 -10.58534,-4.89085 -13.21646,-3.22609 -1.74177,1.10205 -8.12063,2.15053 -16.3134,2.68139 l -13.45327,0.87173 -4.24765,5.19114 c -10.31561,12.60689 -32.88248,55.25447 -34.11461,64.47085 -0.83296,6.23062 3.71599,18.97569 10.32179,28.91924 7.51627,11.31405 26.94578,29.92605 31.24051,29.92605 5.24633,0 19.9788,-6.74119 42.59157,-19.48878 11.61321,-6.54675 26.37855,-14.46695 32.81186,-17.60041 10.75342,-5.23766 12.21015,-5.62914 18.05941,-4.85321 13.9735,1.85365 26.43004,8.31769 30.24496,15.69494 4.7199,9.12728 -0.0824,18.01195 -17.10329,31.64241 -13.12323,10.5092 -16.80607,14.25894 -25.39376,25.85505 -7.57162,10.22411 -15.32814,18.46299 -19.40004,20.6065 -1.73017,0.91079 -8.76142,2.31596 -15.625,3.12259 -14.01667,1.6473 -19.7346,3.83197 -41.85422,15.99146 -12.44103,6.83901 -15.97264,9.55442 -26.25,20.18327 -10.90538,11.27834 -12.41586,12.39605 -18.49903,13.68865 -3.64321,0.77414 -16.36158,1.40753 -28.26303,1.40753 -11.90145,0 -24.24317,0.35694 -27.426,0.7932 -5.5902,0.76621 -5.99321,1.11692 -11.8507,10.3125 -3.33504,5.23561 -10.17121,17.11305 -15.19149,26.3943 -5.02027,9.28125 -11.2296,19.96875 -13.79851,23.75 -8.74428,12.87095 -22.03426,23.59375 -35.66609,28.77655 -2.53089,0.96225 -3.66804,0.54007 -6.805059,-2.52646 z M 227.41708,334.98416 c 8.6768,-0.87612 18.79508,-7.59001 33.13453,-21.98608 10.83164,-10.8744 10.9375,-11.04128 10.9375,-17.23939 0,-6.45471 0.81339,-7.2493 5.08217,-4.96471 1.50609,0.80603 2.41783,2.61292 2.41783,4.79167 0,1.92373 0.31455,3.81224 0.699,4.19669 0.38445,0.38445 3.41646,-1.12971 6.73781,-3.36481 6.4754,-4.35763 17.66823,-8.63094 35.68819,-13.62542 19.10077,-5.29403 19.13899,-5.32108 35.73745,-25.30248 9.99444,-12.03139 17.89012,-20.22369 23.18394,-24.05484 16.76776,-12.13493 12.8045,-23.19348 -8.90058,-24.83503 -8.0048,-0.60541 -9.91097,-0.29718 -16.3265,2.63995 -3.99497,1.82895 -11.84908,6.37647 -17.4536,10.10558 -9.85138,6.55489 -10.24092,7.00036 -11.72165,13.40496 -0.84238,3.64361 -2.8815,9.156 -4.53136,12.24975 l -2.99974,5.625 -0.0565,-7.85172 c -0.0441,-6.14234 -0.5103,-8.02588 -2.14094,-8.65162 -3.82622,-1.46826 -15.91562,2.01354 -27.91555,8.03982 -10.83781,5.44266 -11.94597,6.33246 -12.68767,10.1876 -0.8462,4.39838 -2.98944,6.61826 -5.87671,6.08686 -0.92918,-0.17101 -3.09161,-4.81094 -4.80545,-10.31094 -2.90418,-9.32007 -3.68171,-10.50656 -11.4356,-17.4503 -13.20825,-11.8282 -17.49779,-16.61954 -20.91335,-23.35983 -3.76842,-7.43661 -8.03119,-23.28241 -8.03119,-29.85393 0,-6.15352 15.48859,-37.16304 28.09405,-56.24677 5.17327,-7.83196 9.40595,-14.40288 9.40595,-14.60205 0,-0.19917 -1.345,-0.36212 -2.9889,-0.36212 -3.5701,0 -12.84049,7.40247 -19.79502,15.80647 -2.92014,3.52877 -6.05904,6.06853 -7.50009,6.06853 -2.01991,0 -3.33378,2.42732 -7.10429,13.125 -6.19771,17.5841 -17.08507,38.20526 -27.33234,51.7687 -4.6224,6.11827 -9.03976,12.02012 -9.81636,13.11521 -1.91369,2.69851 -0.0366,31.90275 3.27708,50.98568 2.97808,17.15031 3.04804,20.73557 0.62942,32.25541 -2.70136,12.86652 -9.34098,25.35834 -18.33213,34.49016 -10.77915,10.94781 -10.24194,11.20255 21.94102,10.40436 13.83064,-0.34302 28.09545,-0.92143 31.69958,-1.28536 z m -28.80576,-82.52862 c -2.65274,-2.65273 -0.37586,-5.64503 7.68566,-10.10061 7.74622,-4.28133 9.28742,-4.68977 16.25,-4.3064 7.06805,0.38916 7.69213,0.65653 7.69213,3.29557 0,2.46459 -0.83529,2.9973 -5.88766,3.75495 -4.96158,0.74404 -15.16719,4.03329 -22.92763,7.38955 -1.06716,0.46154 -2.33279,0.44665 -2.8125,-0.0331 z M 160.26031,132.00531 c 18.50207,-18.48783 21.29306,-21.84423 26.875,-32.31938 10.35075,-19.424369 9.8666,-19.079152 38.1038,-27.169427 13.40625,-3.841042 28.03125,-7.259004 32.5,-7.59547 4.46875,-0.336468 18.23697,0.528015 30.59605,1.921072 17.58557,1.982164 22.80519,2.989813 24.008,4.634748 1.60981,2.201548 3.45045,10.393243 4.81381,21.423607 0.79679,6.44654 0.89083,6.5667 7.77574,9.93517 12.93985,6.33088 26.03567,4.99471 33.4314,-3.41102 l 2.5,-2.84141 -4.02876,2.33298 c -4.02135,2.32869 -4.03487,2.32735 -7.33707,-0.7291 -4.41503,-4.08645 -8.87092,-11.214619 -10.18823,-16.2983 -0.85395,-3.295499 -1.93599,-4.361407 -5.31667,-5.237429 -2.33447,-0.604925 -10.69005,-5.273947 -18.56795,-10.375607 -7.87788,-5.101659 -15.50196,-9.268969 -16.94238,-9.260688 -1.44042,0.0083 -5.08153,1.422795 -8.09137,3.143365 l -5.47242,3.128308 0.7068,-3.53399 c 0.38874,-1.943694 0.88257,-4.342583 1.09742,-5.330864 0.3332,-1.532734 -5.12188,-1.784209 -37.10937,-1.710707 -34.78751,0.07994 -37.90688,0.268297 -43.125,2.604111 -7.64675,3.422949 -21.94268,15.995821 -35.31634,31.059721 -9.45671,10.65192 -12.37552,15.08732 -19.74216,30 -4.75459,9.625 -11.72688,21.4375 -15.49396,26.25 -8.67589,11.08354 -11.79935,15.66634 -17.03909,25 l -4.21035,7.5 12.46345,-11.24469 c 6.8549,-6.18458 21.75424,-20.52833 33.10965,-31.875 z m -32.90994,3.11969 c 10.88239,-16.43003 12.73368,-19.45419 10.71291,-17.5 -0.71091,0.6875 -6.13718,6.81596 -12.05837,13.61881 -9.18259,10.54986 -10.7658,13.02229 -10.7658,16.8125 0,5.43956 -0.19348,5.64614 12.11126,-12.93131 z M 373.95582,90.40815 c 2.16085,-3.832445 1.58656,-4.83029 -2.2088,-3.837781 -2.06206,0.539241 -2.75791,1.656861 -2.75791,4.429591 0,4.44799 2.27815,4.17654 4.96671,-0.59181 z m -16.49207,-0.71151 c 1.23675,-0.78481 1.0021,-1.77472 -1.03445,-4.363761 -2.77759,-3.531139 -7.23425,-6.45548 -8.26589,-5.42385 -0.71118,0.711181 5.781,10.850321 6.92931,10.821831 0.42426,-0.0105 1.49123,-0.47593 2.37103,-1.03422 z m -55.15599,-7.12555 c 0.99102,-2.582554 0.60956,-2.827177 -5.86558,-3.761455 l -5.57807,-0.804843 3.75,3.20265 c 4.32179,3.690975 6.64271,4.102345 7.69365,1.363648 z M 369.6039,68.895445 c -4.60722,-3.764251 -5.23285,-3.818014 -6.27354,-0.5391 -0.57205,1.802371 0.0565,3.547026 2.03766,5.655878 l 2.86489,3.049532 2.55539,-2.555386 2.55538,-2.555388 -3.73978,-3.055536 z m -16.86479,-4.306645 0,-7.411201 -9.0625,-5.621563 c -14.1392,-8.770695 -15.64671,-9.277452 -17.92453,-6.025426 -1.96407,2.804119 -7.26267,3.694672 -8.64781,1.45347 -0.43031,-0.696256 0.0571,-2.948846 1.08329,-5.005757 1.69059,-3.388854 1.66911,-3.840527 -0.22889,-4.812722 -1.15201,-0.590086 -8.28206,-1.415892 -15.84456,-1.835122 -11.5,-0.637509 -16.19496,-1.586003 -28.69145,-5.796359 -21.7056,-7.313118 -25.52408,-6.78706 -35.4404,4.8825 l -5.38185,6.33338 22.88185,0.0095 c 35.55257,0.01467 41.48179,1.54621 64.30737,16.610845 10.52002,6.943095 25.96092,14.079721 31.38698,14.506746 1.08814,0.08564 1.5625,-2.127025 1.5625,-7.288233 z" id="path4064" inkscape:connector-curvature="0"/>
</svg>